<svg width="373" height="373" viewBox="0 0 373 373" fill="none" xmlns="http://www.w3.org/2000/svg">
<path fill-rule="evenodd" clip-rule="evenodd" d="M372.36 186.18C372.36 289.004 289.004 372.36 186.18 372.36C83.3556 372.36 0 289.004 0 186.18C0 83.3556 83.3556 0 186.18 0C289.004 0 372.36 83.3556 372.36 186.18ZM314.418 159.671C314.986 159.86 315.554 160.049 316.123 160.617C324.217 165.304 327.2 176.381 322.513 185.754C319.531 191.292 313.566 194.701 307.176 194.701C304.193 194.701 300.785 193.849 298.229 192.145C297.803 191.718 297.377 191.399 296.951 191.079C296.525 190.76 296.099 190.44 295.673 190.014L263.719 208.334C264.146 212.594 264.146 216.855 261.589 220.689C259.033 224.098 256.051 227.08 251.79 228.358V265.424C252.074 265.566 252.358 265.66 252.642 265.755C253.21 265.944 253.779 266.134 254.347 266.702C262.867 271.388 265.424 282.039 260.737 290.56C257.755 296.099 251.364 299.507 245.4 299.507C242.417 299.507 239.009 298.655 236.453 296.951C236.027 296.525 235.601 296.205 235.175 295.886C234.749 295.566 234.323 295.246 233.897 294.82L201.944 313.14C202.37 316.975 202.37 321.235 199.813 325.495C196.831 331.034 190.866 334.442 184.476 334.442C181.494 334.442 178.085 333.59 175.529 331.886C168.712 328.052 165.73 320.383 167.008 313.14L134.629 294.394C131.647 296.951 127.386 298.655 123.126 298.655C120.144 298.655 116.735 297.803 114.179 296.099C110.345 293.968 107.362 289.708 106.084 285.448C104.806 281.187 105.232 276.501 107.788 272.24C110.345 268.832 113.327 265.85 117.587 264.572V227.932C117.303 227.79 117.019 227.695 116.735 227.601C116.167 227.411 115.599 227.222 115.031 226.654C111.197 224.524 108.214 220.263 106.936 216.003C105.658 213.447 105.658 210.464 106.51 207.908L74.5572 189.162C71.5749 191.718 67.3145 193.423 63.0541 193.423C60.0718 193.423 56.6635 192.571 54.1072 190.866C45.5864 186.18 43.0302 175.529 47.7166 167.008C50.2729 163.6 53.2551 160.617 57.5156 159.339V122.7C57.2315 122.558 56.9475 122.463 56.6635 122.368C56.0954 122.179 55.5274 121.99 54.9593 121.422C46.4385 116.735 43.8822 106.084 48.5687 97.5634C51.551 92.0249 57.9416 88.6165 63.9062 88.6165C66.8885 88.6165 70.2968 89.4686 72.853 91.1728C74.1312 91.5988 74.5572 92.0249 75.4093 92.8769L107.362 74.1311C106.936 69.8707 106.936 65.6103 109.493 61.7759C112.475 56.2374 118.439 52.8291 124.83 52.8291C127.812 52.8291 131.221 53.6812 133.777 55.3853C137.611 57.5155 140.594 61.7759 141.872 66.0364C143.15 68.5926 143.15 71.5749 142.298 74.1311L174.251 92.8769C177.233 90.3207 181.494 88.6165 185.754 88.6165C188.736 88.6165 192.145 89.4686 194.701 91.1728C195.189 91.4982 195.553 91.6994 195.864 91.8712C196.367 92.1492 196.73 92.3503 197.257 92.8769L229.21 74.1311C228.784 69.8707 229.21 65.6103 231.34 61.7759C234.323 56.2374 240.713 52.8291 246.678 52.8291C249.66 52.8291 253.068 53.6812 255.625 55.3853C262.441 59.2197 265.424 66.8884 264.146 74.1311L296.525 92.4509C299.507 89.8947 303.767 88.1905 308.028 88.1905C311.01 88.1905 314.418 89.0426 316.975 90.7467C320.809 92.8769 323.791 97.1374 325.069 101.398C326.348 105.658 325.922 110.345 323.365 114.605C320.809 118.013 317.827 120.996 313.566 122.274V159.339C313.85 159.481 314.134 159.576 314.418 159.671ZM289.708 179.363C289.282 175.529 289.282 170.842 291.838 167.008C293.968 163.174 297.803 160.191 301.637 158.913V122.274C301.331 122.121 300.971 122.023 300.594 121.921C299.923 121.738 299.201 121.542 298.655 120.996C294.82 118.865 291.838 114.605 290.56 110.345C289.708 107.788 289.708 104.806 290.56 102.25L258.607 83.504C255.199 86.0603 250.938 87.7645 246.678 87.7645C243.696 87.7645 240.287 86.9124 237.731 85.2082C237.305 84.7822 236.879 84.4626 236.453 84.1431C236.027 83.8236 235.601 83.504 235.175 83.078L203.222 101.398C204.5 105.658 204.074 109.919 201.517 114.179C198.961 117.587 195.979 120.57 191.719 121.848V158.913C192.003 159.055 192.287 159.15 192.571 159.245C193.139 159.434 193.707 159.623 194.275 160.191C198.109 162.322 201.091 166.582 202.37 170.842C203.222 173.399 203.222 175.955 202.796 178.511L234.749 197.257C237.731 194.701 241.991 192.997 246.252 192.997C249.234 192.997 252.642 193.849 255.199 195.553C255.625 195.979 256.051 196.298 256.477 196.618C256.903 196.937 257.329 197.257 257.755 197.683L289.708 179.363ZM228.784 285.021C228.358 281.187 228.358 276.501 230.914 272.666C233.045 268.406 236.879 265.85 241.139 264.145V227.506C240.833 227.353 240.473 227.255 240.097 227.153C239.425 226.97 238.703 226.774 238.157 226.228C234.323 224.098 231.34 219.837 230.062 215.577C229.21 213.021 229.21 210.038 230.062 207.482L198.109 188.736C194.701 191.718 190.44 193.423 186.18 193.423C183.198 193.423 179.789 192.571 177.233 190.866C176.807 190.44 176.381 190.121 175.955 189.801C175.529 189.482 175.103 189.162 174.677 188.736L142.724 207.056C143.15 210.89 143.15 215.151 140.594 219.411C138.037 223.246 134.629 226.228 130.369 227.506V264.145C130.674 264.298 131.035 264.396 131.411 264.499C132.083 264.681 132.805 264.877 133.351 265.424C140.168 269.258 143.15 276.927 141.872 284.169L174.251 302.915C177.233 300.359 181.494 298.655 185.754 298.655C188.736 298.655 192.145 299.507 194.701 301.211C195.127 301.637 195.553 301.957 195.979 302.276C196.405 302.596 196.831 302.915 197.257 303.341L228.784 285.021ZM81.7999 179.789L113.753 198.535C117.161 195.553 120.996 193.849 124.404 194.701C127.386 194.701 130.795 195.553 133.351 197.257C134.629 197.683 135.055 198.109 135.907 198.961L167.86 180.641C167.434 176.381 167.86 172.121 169.99 168.286C172.121 164.878 175.529 161.896 179.789 160.617V123.552C179.613 123.375 179.29 123.272 178.912 123.151C178.378 122.98 177.732 122.773 177.233 122.274C173.399 120.144 170.416 115.883 169.138 111.623C168.286 109.067 168.286 106.084 169.138 103.528L137.185 84.7822C133.777 87.3384 129.517 89.0426 125.256 89.0426C122.274 89.0426 118.865 88.1905 116.309 86.4863C115.883 86.0603 115.457 85.7408 115.031 85.4212C114.605 85.1017 114.179 84.7822 113.753 84.3561L82.2259 102.676C83.078 106.51 83.078 111.197 80.5218 115.457C77.9655 119.291 74.5572 122.274 70.2968 123.552V159.765C70.6026 159.918 70.9633 160.016 71.3395 160.119C72.0114 160.301 72.7328 160.497 73.2791 161.044C80.0957 164.878 83.078 172.547 81.7999 179.789ZM186.18 169.564C183.624 169.564 181.494 170.842 180.215 172.973C178.511 176.381 179.363 179.789 182.772 181.92C183.624 182.346 185.328 182.772 186.18 182.772C188.736 182.772 190.866 181.493 192.145 179.363C193.849 176.381 192.571 172.121 189.588 170.416C188.736 169.99 187.032 169.564 186.18 169.564ZM311.01 100.12C310.158 99.6936 308.454 99.2676 307.602 99.2676C305.471 99.2676 303.341 100.546 301.637 102.676C299.933 105.658 301.211 109.919 304.193 111.623C305.045 112.049 306.75 112.475 307.602 112.475C310.158 112.475 312.288 111.197 313.566 109.067C315.27 106.084 313.992 101.824 311.01 100.12ZM247.104 63.9062C244.548 63.9062 242.417 65.1843 241.139 67.3145C239.435 70.2968 240.287 74.1311 243.696 76.2613C244.548 76.6874 246.252 77.1134 247.104 77.1134C249.66 77.1134 251.79 75.8353 253.068 73.7051C254.773 70.7228 253.494 66.4624 250.512 64.7582C249.66 64.3322 247.956 63.9062 247.104 63.9062ZM189.588 100.546C188.736 100.12 187.032 99.6936 186.18 99.6936C184.05 99.6936 181.92 100.546 180.215 103.102C178.511 106.084 179.789 110.345 182.772 112.049C183.624 112.475 185.328 112.901 186.18 112.901C188.736 112.901 190.866 111.623 192.145 109.493C193.849 106.51 192.571 102.25 189.588 100.546ZM125.256 64.3322C122.7 64.3322 120.57 65.6103 119.292 67.7405C117.587 71.1488 118.865 74.5572 121.848 76.6874C122.7 77.1134 124.404 77.5395 125.256 77.5395C127.812 77.5395 129.943 76.2613 131.221 74.1311C132.925 71.1488 131.647 66.8884 128.664 65.1843C127.812 64.7582 126.108 64.3322 125.256 64.3322ZM65.1843 99.6936C62.6281 99.6936 60.4978 100.972 59.2197 103.102C57.5156 106.51 58.3676 110.345 61.776 112.049C62.6281 112.475 64.3322 112.901 65.1843 112.901C67.7405 112.901 69.8708 111.623 71.1489 109.493C72.853 106.51 71.5749 102.25 68.5926 100.546C67.7405 100.12 66.0364 99.6936 65.1843 99.6936ZM60.9239 181.92C61.776 182.346 63.4801 182.772 64.3322 182.772C66.4624 182.772 68.5926 181.493 70.2968 179.363C72.001 176.381 70.7228 172.121 67.7405 170.416C66.8885 169.99 65.1843 169.564 64.3322 169.564C61.776 169.564 59.6458 170.842 58.3676 172.973C56.6635 175.955 57.9416 180.215 60.9239 181.92ZM125.682 204.926C123.126 204.926 120.996 206.204 119.718 208.334C118.013 211.316 119.292 215.577 122.274 217.281C123.126 217.707 124.83 218.133 125.682 218.133C128.238 218.133 130.369 216.855 131.647 214.725C133.351 211.742 132.073 207.482 129.09 205.778C128.238 205.352 126.534 204.926 125.682 204.926ZM121.422 287.152C122.274 287.578 123.978 288.004 124.83 288.004C127.386 288.004 129.09 286.726 130.795 284.595C132.499 281.613 131.221 277.353 128.238 275.649C127.386 275.223 125.682 274.797 124.83 274.797C122.274 274.797 120.144 276.075 118.865 278.205C117.161 281.187 118.439 285.448 121.422 287.152ZM185.754 323.365C188.31 323.365 190.44 322.087 191.719 319.957C193.423 316.549 192.145 313.14 189.162 311.01C188.31 310.584 186.606 310.158 185.754 310.158C183.198 310.158 181.068 311.436 179.789 313.566C178.085 316.549 179.363 320.809 182.346 322.513C183.198 322.939 184.902 323.365 185.754 323.365ZM245.826 288.004C248.382 288.004 250.512 286.726 251.79 284.595C253.494 281.613 252.642 277.353 249.234 275.649C248.382 275.223 246.678 274.797 245.826 274.797C243.27 274.797 241.139 276.075 239.861 278.205C238.157 281.187 239.435 285.448 242.417 287.152C243.27 287.578 244.974 288.004 245.826 288.004ZM246.678 217.707C249.234 217.707 251.364 216.429 252.642 214.299C253.921 211.316 253.068 207.482 250.086 205.352C249.234 204.926 247.53 204.5 246.678 204.5C244.122 204.5 241.991 205.778 240.713 207.908C239.009 210.89 240.287 215.151 243.27 216.855C244.122 217.281 245.826 217.707 246.678 217.707ZM306.75 182.772C309.306 182.772 311.436 181.493 312.714 179.363C314.418 175.955 313.566 172.121 310.158 170.416C309.306 169.99 307.602 169.564 306.75 169.564C304.193 169.564 302.063 170.842 300.785 172.973C299.081 175.955 300.359 180.215 303.341 181.92C304.193 182.346 305.898 182.772 306.75 182.772Z" fill="#444C61"/>
</svg>
