<svg width="518" height="159" viewBox="0 0 518 159" fill="none" xmlns="http://www.w3.org/2000/svg">
<g clip-path="url(#clip0_1_23)">
<path d="M377.061 61.492C377.909 61.387 378.439 61.281 378.544 61.068C378.757 60.857 378.863 60.327 378.863 59.371V50.354C378.863 49.612 378.757 49.082 378.544 48.87C378.333 48.659 377.803 48.551 377.061 48.446V48.021H388.2L388.305 50.991H387.775C387.67 50.037 387.351 49.4 386.925 49.189C386.501 48.977 385.758 48.764 384.592 48.764H381.728C381.41 48.764 381.306 48.764 381.198 48.87C381.092 48.977 381.092 49.189 381.092 49.4V54.067H384.063C384.912 54.067 385.548 53.962 385.76 53.643C385.972 53.325 386.184 52.794 386.397 52.052H386.928V56.826H386.397C386.291 55.977 386.081 55.447 385.76 55.235C385.55 54.917 384.911 54.812 384.063 54.812H381.092V59.374C381.092 60.116 381.198 60.646 381.41 60.859C381.622 61.07 382.152 61.177 382.895 61.282V61.706H377.061V61.492Z" fill="black"/>
<path d="M199.796 48.127H211.571L211.677 51.627H211.147C210.936 50.566 210.617 49.823 210.192 49.505C209.767 49.187 209.025 48.975 207.858 48.975H206.691V59.583C206.691 60.432 206.796 60.856 207.115 61.067C207.327 61.279 207.964 61.386 208.813 61.491V61.916H202.66V61.491C203.509 61.386 204.039 61.28 204.357 61.067C204.569 60.856 204.675 60.326 204.675 59.37V48.975H203.508C202.341 48.975 201.598 49.187 201.175 49.505C200.751 49.823 200.432 50.566 200.22 51.733H199.69L199.796 48.127Z" fill="black"/>
<path d="M217.83 61.492C218.678 61.387 219.103 61.281 219.315 61.068C219.526 60.857 219.633 60.327 219.633 59.371V50.354C219.633 49.612 219.527 49.082 219.315 48.87C219.103 48.659 218.572 48.551 217.83 48.446V48.021H223.665V48.445C222.922 48.551 222.392 48.658 222.179 48.869C221.967 49.081 221.755 49.611 221.755 50.353V54.385H228.12V50.354C228.12 49.612 228.014 49.082 227.802 48.87C227.59 48.659 227.059 48.551 226.317 48.446V48.021H232.151V48.445C231.408 48.551 230.878 48.658 230.666 48.869C230.348 49.081 230.241 49.611 230.241 50.353V59.582C230.241 60.325 230.347 60.855 230.56 61.066C230.772 61.278 231.302 61.385 232.045 61.49V61.915H226.21V61.49C227.058 61.385 227.589 61.279 227.695 61.066C227.907 60.855 228.013 60.325 228.013 59.368V55.339H221.648V59.582C221.648 60.325 221.754 60.855 221.966 61.066C222.178 61.278 222.709 61.385 223.451 61.49V61.915H217.617V61.49H217.829L217.83 61.492Z" fill="black"/>
<path d="M237.456 61.492C238.198 61.387 238.729 61.281 238.941 61.068C239.153 60.857 239.259 60.431 239.259 59.584V50.355C239.259 49.612 239.154 49.082 238.941 48.87C238.729 48.659 238.198 48.552 237.456 48.446V48.022H248.489L248.595 50.992H248.064C247.852 50.038 247.639 49.508 247.321 49.19C247.003 48.871 246.154 48.766 244.988 48.766H242.124C241.806 48.766 241.593 48.766 241.593 48.872C241.487 48.979 241.487 49.191 241.487 49.402V54.07H244.669C245.519 54.07 246.154 53.964 246.367 53.645C246.579 53.327 246.791 52.796 247.004 52.054H247.534V56.828H247.004C246.898 55.979 246.685 55.449 246.367 55.237C246.155 54.919 245.519 54.814 244.669 54.814H241.487V60.011C241.487 60.436 241.593 60.648 241.911 60.754C242.124 60.861 242.972 60.861 244.245 60.861C245.624 60.861 246.684 60.754 247.321 60.437C247.958 60.119 248.594 59.376 249.125 58.209H249.655L248.7 61.709H237.455L237.456 61.492Z" fill="black"/>
<path d="M260.051 61.492C260.899 61.387 261.324 61.281 261.536 61.068C261.748 60.857 261.854 60.327 261.854 59.371V50.354C261.854 49.612 261.748 49.082 261.536 48.87C261.324 48.659 260.793 48.551 260.051 48.446V48.021H265.886V48.445C265.143 48.551 264.613 48.658 264.401 48.869C264.188 49.081 264.082 49.611 264.082 50.353V54.385H270.447V50.354C270.447 49.612 270.342 49.082 270.129 48.87C269.917 48.659 269.387 48.551 268.645 48.446V48.021H274.479V48.445C273.737 48.551 273.207 48.658 272.995 48.869C272.782 49.081 272.677 49.611 272.677 50.353V59.582C272.677 60.325 272.782 60.855 272.995 61.066C273.207 61.278 273.737 61.385 274.479 61.49V61.915H268.433V61.49C269.282 61.385 269.812 61.279 269.917 61.066C270.129 60.855 270.235 60.325 270.235 59.368V55.339H263.87V59.582C263.87 60.325 263.976 60.855 264.188 61.066C264.401 61.278 264.931 61.385 265.673 61.49V61.915H259.839V61.49H260.051V61.492Z" fill="black"/>
<path d="M284.132 59.796C284.981 60.857 286.041 61.387 287.314 61.387C288.588 61.387 289.542 60.857 290.497 59.901C291.347 58.841 291.77 57.25 291.77 55.022C291.77 52.793 291.346 51.097 290.497 50.141C289.648 49.08 288.589 48.658 287.314 48.658C286.042 48.658 284.981 49.188 284.132 50.249C283.283 51.31 282.859 52.901 282.859 55.128C282.753 57.145 283.176 58.841 284.132 59.796ZM282.54 49.611C283.813 48.338 285.405 47.808 287.313 47.808C289.223 47.808 290.815 48.445 292.087 49.611C293.466 50.99 294.209 52.688 294.209 54.915C294.209 57.144 293.466 58.946 292.087 60.327C290.815 61.493 289.223 62.129 287.418 62.129C285.51 62.129 283.813 61.492 282.539 60.114C281.267 58.736 280.523 57.038 280.523 54.916C280.418 52.794 281.162 50.99 282.54 49.611Z" fill="black"/>
<path d="M305.877 48.127V48.55C305.03 48.658 304.606 48.762 304.287 48.975C304.075 49.187 303.97 49.718 303.97 50.459V57.144C303.97 58.205 304.075 59.053 304.394 59.689C304.924 60.75 305.985 61.387 307.577 61.387C309.274 61.387 310.439 60.857 310.971 59.689C311.289 59.052 311.501 58.098 311.501 56.718V51.308C311.501 50.14 311.395 49.504 311.077 49.186C310.761 48.866 310.335 48.761 309.485 48.655V48.231H314.259V48.656C313.41 48.761 312.88 48.974 312.667 49.292C312.456 49.61 312.35 50.247 312.35 51.414V56.824C312.35 58.309 312.137 59.37 311.711 60.219C310.862 61.704 309.378 62.448 307.046 62.448C304.817 62.448 303.225 61.705 302.483 60.219C302.059 59.476 301.846 58.415 301.846 57.144V50.354C301.846 49.612 301.741 49.082 301.527 48.87C301.316 48.659 300.785 48.551 300.043 48.446V48.021H305.877V48.127Z" fill="black"/>
<path d="M320.729 57.675C321.048 58.629 321.472 59.372 322.002 59.902C322.85 60.858 323.805 61.388 325.078 61.388C325.715 61.388 326.349 61.176 326.775 60.751C327.306 60.328 327.518 59.797 327.518 58.947C327.518 58.31 327.306 57.675 326.775 57.145C326.457 56.825 325.82 56.295 324.759 55.66L322.956 54.599C322.426 54.281 322.001 53.963 321.683 53.538C321.047 52.902 320.835 52.16 320.835 51.416C320.835 50.355 321.152 49.507 321.896 48.764C322.638 48.022 323.487 47.703 324.654 47.703C325.079 47.703 325.715 47.809 326.351 48.022C326.99 48.233 327.413 48.34 327.52 48.34C327.733 48.34 327.943 48.234 328.05 48.129C328.155 48.022 328.263 47.81 328.263 47.599H328.685L329.108 52.053H328.578C328.262 50.674 327.731 49.825 326.987 49.295C326.245 48.765 325.503 48.553 324.759 48.553C324.229 48.553 323.697 48.765 323.274 49.083C322.851 49.401 322.638 49.932 322.638 50.462C322.638 50.992 322.849 51.416 323.168 51.842C323.486 52.265 324.018 52.583 324.653 53.008L326.456 54.175C327.623 54.918 328.366 55.555 328.896 56.086C329.32 56.723 329.637 57.358 329.637 58.208C329.637 59.269 329.213 60.223 328.366 60.967C327.517 61.709 326.456 62.028 325.183 62.028C324.546 62.028 323.909 61.922 323.167 61.71C322.425 61.498 322.106 61.392 322 61.392C321.787 61.392 321.576 61.498 321.47 61.603C321.364 61.71 321.364 61.923 321.257 62.027H320.834L320.195 57.572H320.726V57.675H320.729Z" fill="black"/>
<path d="M336.219 61.492C336.96 61.387 337.491 61.281 337.702 61.068C337.916 60.857 338.021 60.431 338.021 59.584V50.355C338.021 49.612 337.916 49.082 337.702 48.87C337.491 48.659 336.96 48.552 336.219 48.446V48.022H347.25L347.357 50.992H346.826C346.613 50.038 346.401 49.508 346.083 49.19C345.766 48.871 344.917 48.766 343.751 48.766H340.886C340.569 48.766 340.355 48.766 340.355 48.872C340.249 48.979 340.249 49.191 340.249 49.402V54.07H343.432C344.283 54.07 344.918 53.964 345.13 53.645C345.343 53.327 345.554 52.796 345.769 52.054H346.299V56.828H345.769C345.661 55.979 345.45 55.449 345.13 55.237C344.919 54.919 344.282 54.814 343.432 54.814H340.249V60.011C340.249 60.436 340.355 60.648 340.675 60.754C340.886 60.861 341.736 60.861 343.007 60.861C344.388 60.861 345.448 60.754 346.084 60.437C346.719 60.119 347.357 59.376 347.888 58.209H348.418L347.464 61.709H336.219V61.492Z" fill="black"/>
<path d="M363.375 59.796C364.223 60.857 365.283 61.387 366.558 61.387C367.83 61.387 368.786 60.857 369.741 59.901C370.589 58.841 371.013 57.25 371.013 55.022C371.013 52.793 370.588 51.097 369.741 50.141C368.891 49.08 367.831 48.658 366.558 48.658C365.284 48.658 364.223 49.188 363.375 50.249C362.525 51.31 362.101 52.901 362.101 55.128C361.995 57.145 362.42 58.841 363.375 59.796ZM361.784 49.611C363.055 48.338 364.647 47.808 366.557 47.808C368.465 47.808 370.056 48.445 371.331 49.611C372.708 50.99 373.453 52.688 373.453 54.915C373.453 57.144 372.708 58.946 371.331 60.327C370.056 61.493 368.465 62.129 366.662 62.129C364.752 62.129 363.055 61.492 361.783 60.114C360.51 58.736 359.872 57.038 359.872 54.916C359.662 52.794 360.403 50.99 361.784 49.611Z" fill="black"/>
<path d="M226.067 107.496C228.267 106.296 229.367 103.996 229.367 100.598C229.367 97.198 228.067 94.897 225.467 93.698C222.867 92.498 219.567 91.798 215.567 91.798C214.567 91.798 213.967 91.798 213.667 91.798C213.367 91.798 213.067 91.798 212.467 91.798V106.798C212.467 107.798 212.767 108.498 213.367 108.798C213.967 109.099 215.467 109.198 217.767 109.198C221.067 109.296 223.867 108.695 226.067 107.496ZM199.767 110.396C202.367 110.294 204.067 109.896 204.767 109.294C205.567 108.694 205.967 107.194 205.967 104.994V78.097C205.967 75.897 205.567 74.496 204.767 73.796C203.967 73.097 202.367 72.796 199.767 72.597V71.496H217.767C222.867 71.496 226.967 72.296 229.967 73.796C232.967 75.397 234.567 77.996 234.567 81.796C234.567 84.695 233.467 86.796 231.367 88.296C230.167 89.098 228.367 89.796 225.967 90.397C228.967 91.098 231.467 92.198 233.567 93.796C235.667 95.397 236.667 97.496 236.667 100.296C236.667 104.996 234.367 108.296 229.667 109.996C227.267 110.896 224.167 111.396 220.667 111.396H199.667V110.396H199.767ZM223.967 88.396C226.667 87.195 228.067 85.095 228.067 82.095C228.067 78.494 226.467 76.095 223.367 74.794C221.667 74.095 218.967 73.794 215.467 73.794C214.167 73.794 213.267 73.895 212.967 74.095C212.667 74.294 212.467 74.895 212.467 75.895V89.495L218.567 89.395C220.767 89.396 222.567 88.996 223.967 88.396Z" fill="black"/>
<path d="M257.167 89.496C260.367 88.195 261.967 85.695 261.967 81.996C261.967 78.496 260.568 76.097 257.667 74.796C256.167 74.097 254.067 73.796 251.567 73.796C249.867 73.796 248.767 73.897 248.367 74.196C247.967 74.396 247.767 74.996 247.767 75.896V90.795C252.167 90.695 255.267 90.296 257.167 89.496ZM236.467 110.496C238.767 110.296 240.267 109.796 240.767 109.098C241.367 108.397 241.667 106.796 241.667 104.296V78.097C241.667 75.996 241.367 74.597 240.667 73.897C240.067 73.197 238.667 72.796 236.467 72.597V71.496H253.267C256.767 71.496 259.667 71.896 261.967 72.796C266.367 74.496 268.568 77.597 268.568 82.098C268.568 85.098 267.568 87.397 265.568 89.098C263.568 90.698 260.967 91.796 257.568 92.296L270.068 107.695C270.868 108.595 271.568 109.296 272.368 109.796C273.168 110.195 274.168 110.496 275.368 110.598V111.698H265.568L251.168 93.098L247.768 93.198V105.098C247.768 107.296 248.068 108.796 248.768 109.397C249.468 109.999 250.968 110.397 253.268 110.598V111.698H236.468L236.467 110.496Z" fill="black"/>
<path d="M289.367 71.496V72.597C287.067 72.796 285.567 73.197 284.867 73.796C284.167 74.397 283.867 75.796 283.867 78.097V97.496C283.867 100.695 284.266 103.098 285.167 104.896C286.767 108.095 289.867 109.794 294.366 109.794C299.266 109.794 302.667 108.095 304.366 104.794C305.266 102.896 305.766 100.095 305.766 96.194V80.395C305.766 77.096 305.366 74.996 304.567 74.195C303.766 73.395 302.266 72.795 300.067 72.595V71.494H314.067V72.595C311.766 72.895 310.167 73.395 309.466 74.294C308.766 75.194 308.364 77.194 308.364 80.395V96.196C308.364 100.395 307.763 103.596 306.466 105.996C304.067 110.296 299.567 112.496 292.965 112.496C286.465 112.496 281.965 110.395 279.565 106.097C278.266 103.796 277.666 100.796 277.666 96.996V78.097C277.666 75.897 277.366 74.496 276.666 73.897C275.966 73.296 274.466 72.897 272.267 72.697V71.597H289.367V71.496Z" fill="black"/>
<path d="M335.067 96.098L328.067 79.397L321.167 96.098H335.067ZM308.866 111.598V110.496C310.468 110.296 311.567 109.695 312.366 108.695C313.167 107.695 314.468 104.996 316.366 100.496L328.968 70.796H330.167L345.267 105.098C346.267 107.397 347.068 108.796 347.667 109.397C348.267 109.897 349.267 110.296 350.667 110.498V111.599H335.267V110.498C337.068 110.298 338.167 110.198 338.667 109.897C339.167 109.698 339.468 109.098 339.468 108.198C339.468 107.897 339.366 107.397 339.167 106.598C338.968 105.796 338.667 105.098 338.366 104.198L335.866 98.397H319.968C318.366 102.397 317.468 104.796 317.167 105.698C316.866 106.598 316.767 107.298 316.767 107.798C316.767 108.798 317.167 109.498 317.968 109.9C318.468 110.099 319.468 110.298 320.866 110.4V111.5H308.866V111.598Z" fill="black"/>
<path d="M370.167 89.496C373.366 88.195 374.968 85.695 374.968 81.996C374.968 78.496 373.568 76.097 370.667 74.796C369.167 74.097 367.067 73.796 364.567 73.796C362.866 73.796 361.766 73.897 361.366 74.196C360.968 74.396 360.766 74.996 360.766 75.896V90.795C365.167 90.695 368.267 90.296 370.167 89.496ZM349.468 110.496C351.767 110.296 353.267 109.796 353.767 109.098C354.368 108.397 354.667 106.796 354.667 104.296V78.097C354.667 75.996 354.366 74.597 353.667 73.897C353.067 73.197 351.667 72.796 349.468 72.597V71.496H366.267C369.767 71.496 372.667 71.896 374.968 72.796C379.366 74.496 381.568 77.597 381.568 82.098C381.568 85.098 380.568 87.397 378.568 89.098C376.568 90.698 373.968 91.796 370.568 92.296L383.068 107.695C383.868 108.595 384.568 109.296 385.368 109.796C386.169 110.195 387.169 110.496 388.368 110.598V111.698H378.568L364.169 93.098L360.77 93.198V105.098C360.77 107.296 361.071 108.796 361.77 109.397C362.471 109.999 363.971 110.397 366.27 110.598V111.698H349.47V110.497L349.468 110.496Z" fill="black"/>
<path d="M188.374 104.949C188.374 104.949 184.881 104.949 184.687 104.949H168.291C167.903 104.075 167.806 102.912 167.515 101.941C167.515 101.747 166.351 99.806 166.351 99.322C166.351 99.128 166.254 98.933 166.739 98.933C167.127 98.933 169.165 99.322 169.65 99.418C170.62 99.61 172.172 100.29 173.046 101.163C173.337 100.97 173.628 99.999 173.628 99.708C173.628 99.224 172.367 96.7 172.367 96.312C172.173 95.052 171.493 93.888 170.621 92.916L170.523 92.819C170.523 92.819 170.523 92.819 170.523 92.721C170.135 92.333 169.65 91.848 169.166 91.459C166.546 89.422 163.345 89.229 160.627 88.063C160.434 87.676 160.336 86.901 160.336 86.707C160.336 86.124 160.821 84.864 161.597 83.796C162.276 82.826 163.246 82.05 164.12 82.05C165.575 82.05 166.351 82.826 166.933 83.796C167.71 85.349 168.001 87.484 169.456 88.939C170.135 89.619 171.299 89.521 172.172 90.005C172.366 90.2 173.433 92.237 174.209 92.237H174.598C174.694 91.557 174.889 90.49 174.889 90.297C174.889 89.715 174.016 86.513 174.016 86.416C174.016 86.026 175.568 84.961 175.956 84.961H177.604C177.798 84.571 178.284 84.767 178.284 84.281C178.284 84.182 178.187 83.99 178.09 83.893C177.023 82.438 172.366 80.012 171.687 80.012C170.717 80.012 168.097 80.69 166.739 80.69C166.351 80.69 165.09 80.788 165.09 79.915C165.09 79.915 166.06 76.228 166.642 76.228C167.031 76.228 169.941 78.265 170.814 78.459C171.591 78.653 171.784 78.557 171.978 78.557C173.046 78.557 173.918 76.907 174.792 76.421C175.472 76.034 176.15 75.549 176.732 75.064C176.732 75.064 176.829 75.064 176.829 74.966C177.218 74.578 177.703 74.192 178.09 73.803C177.993 73.706 177.993 73.706 177.993 73.609H176.926C176.052 73.609 172.56 71.378 172.172 71.378H171.298C169.941 71.96 168 74.774 166.836 74.774C165.962 74.774 164.992 71.572 164.992 71.086C164.992 71.086 165.284 70.312 165.477 70.312H167.806C169.941 70.312 171.105 68.468 172.075 66.333C172.075 66.235 172.075 66.235 172.172 66.139C172.948 64.393 173.531 62.355 174.403 61.288V60.803H173.724C173.531 60.803 172.56 61.288 172.075 61.483C171.008 61.87 165.381 63.229 165.284 66.236C165.284 66.528 165.381 67.594 165.381 67.789C165.381 68.469 165.284 69.632 164.314 69.632C163.829 69.632 161.597 67.692 161.597 66.819C161.597 66.721 161.597 66.528 161.695 66.334C161.889 65.558 162.277 64.296 162.374 63.714C162.567 63.714 167.612 62.162 167.612 60.222V58.67C167.612 58.475 168.486 54.982 168.486 54.789V53.82H168.098C165.672 55.565 161.015 56.827 161.015 60.513C161.015 62.259 161.5 62.162 161.5 63.521C161.5 64.103 161.5 66.237 160.433 66.237C159.268 66.237 159.365 64.492 159.075 63.811C158.881 63.23 158.299 62.454 157.716 62.163C157.329 61.871 156.261 61.871 156.261 61.193V60.028C156.261 59.835 156.358 59.835 156.455 59.835V57.021C156.455 56.828 156.552 55.664 156.358 55.081C156.164 54.111 155.678 53.044 155.096 52.171C154.417 51.298 150.052 48.097 149.275 48.097C148.984 48.097 148.887 48.388 148.887 48.582C148.887 48.873 149.469 50.522 149.469 50.522V56.924C149.469 59.156 154.514 61.29 154.514 62.067C154.514 62.455 154.223 62.746 153.641 62.746C150.052 62.746 150.148 57.119 147.141 57.119C146.656 57.119 146.558 57.799 145.879 57.799C145.685 57.799 144.327 57.314 144.133 57.314C143.648 57.314 143.357 57.703 142.678 57.703H141.513C140.931 57.703 140.155 57.993 139.767 58.09C143.648 61.099 143.648 63.427 147.334 63.427L150.147 63.329C150.244 63.329 150.147 63.232 150.341 63.232H151.699C152.378 63.232 153.93 63.911 153.93 65.076C153.93 65.269 153.93 65.366 153.833 65.464C153.348 65.366 152.863 65.561 152.572 65.561C151.99 65.561 148.594 64.688 147.721 64.688C146.751 64.688 145.587 65.27 144.52 66.046C144.52 66.046 144.52 66.046 144.423 66.046C142.289 67.792 140.348 70.606 140.348 72.353C140.348 72.837 139.766 73.516 139.766 73.711C139.766 73.904 139.766 73.808 139.863 73.904H140.542C140.542 73.904 146.072 72.158 148.013 71.478C149.274 70.993 150.535 70.217 151.7 69.247C151.797 68.957 152.379 66.143 153.447 66.143C153.641 66.143 154.417 66.24 154.611 66.24C154.708 66.24 155.29 66.143 155.678 66.047C155.775 66.047 155.969 65.95 155.969 65.95C155.969 65.95 156.261 66.047 156.358 66.047C156.551 66.144 156.649 66.24 156.649 66.532C156.649 68.084 152.186 71.576 152.186 73.42V74.875V74.972V75.167C151.798 75.555 151.604 75.555 151.313 75.555C150.925 75.555 150.343 75.264 149.761 74.972C149.761 74.972 149.761 74.972 149.664 74.972C149.082 74.779 148.403 74.584 147.724 74.584C147.045 74.584 145.978 74.778 145.105 74.972C145.105 74.972 145.105 74.972 145.008 74.972C142.68 75.653 140.254 77.01 140.06 78.951H141.515C143.067 78.951 144.135 81.279 146.948 81.279C147.724 81.279 151.411 79.727 151.605 79.727H152.77C154.322 79.727 154.516 81.085 154.516 82.248C154.516 82.346 154.516 82.831 154.516 83.801C154.516 83.995 154.516 84.19 154.516 84.481C154.516 84.966 153.546 85.257 153.255 85.452C152.673 85.063 151.994 84.386 151.412 83.804L151.218 83.609L151.315 83.707C150.054 82.641 148.987 82.447 147.531 82.447C147.337 82.447 146.658 82.349 145.784 82.544C145.299 82.641 144.523 83.126 144.038 83.707C143.165 85.066 140.158 88.171 140.158 88.559V89.141C141.71 89.141 142.68 89.917 144.136 89.917H146.27C146.658 90.111 147.046 90.499 147.434 90.79C147.822 90.499 151.606 86.812 152.382 86.812C152.576 86.812 152.867 87.005 152.867 87.394C152.867 87.685 151.897 89.431 151.703 90.207V92.728C151.703 92.728 151.703 92.728 151.703 92.826C151.606 93.603 150.442 93.99 149.86 93.99C147.047 93.99 146.27 97.484 144.718 99.228C144.233 99.812 143.457 99.812 143.457 100.49C143.457 100.976 144.233 100.976 144.524 100.976C144.718 100.976 145.882 100.781 145.979 100.781C146.173 100.781 147.046 100.976 147.24 100.976H150.927C151.994 100.976 153.837 98.549 154.516 98.549C155.39 98.549 156.553 100.489 156.553 101.362C156.553 101.46 156.456 101.846 156.165 101.846H154.709C154.515 102.039 154.321 102.235 154.321 102.428C154.321 102.621 154.612 103.204 154.612 103.303C154.612 103.981 154.321 104.465 154.029 105.047H131.425C130.067 105.338 129 106.502 129 107.86C129 108.637 129.776 110.674 131.231 110.674H188.666C190.025 109.897 190.51 109.121 190.51 107.956C190.509 107.084 189.83 104.949 188.374 104.949ZM169.747 87.971H169.456C169.358 87.778 169.262 87.487 169.262 87.292V86.809C169.456 86.905 170.038 87.389 169.942 87.874C169.941 87.874 169.844 87.874 169.747 87.971ZM171.396 88.456H171.105C170.911 88.066 170.717 87.874 170.717 87.68C170.717 87.487 170.911 87.196 171.105 87.196C171.202 87.196 171.493 87.487 171.493 87.68C171.396 88.359 171.299 88.359 171.396 88.456ZM174.016 89.814H173.433C173.239 89.424 172.366 88.359 172.366 87.777C172.366 87.582 172.463 87.484 172.56 87.292C172.657 87.389 174.015 88.264 174.015 88.748L174.016 89.814ZM173.434 83.412H173.919C174.017 83.603 174.017 83.701 174.21 83.799V83.897V83.995V84.092C174.113 84.092 174.113 84.189 174.017 84.286C173.919 84.188 173.725 84.092 173.629 83.995C173.533 83.897 173.435 83.801 173.435 83.703C173.337 83.508 173.434 83.412 173.434 83.412ZM172.754 83.993C172.851 84.09 172.851 84.185 172.851 84.284C172.851 84.478 172.657 84.867 172.366 84.867C171.881 84.867 171.783 84.382 171.687 83.993C171.687 83.896 171.687 83.701 171.687 83.603C171.687 83.412 171.784 83.314 171.978 82.925C172.172 83.023 172.561 83.604 172.754 83.993ZM171.105 81.473C171.298 81.374 171.396 81.278 171.59 81.278C171.881 81.278 171.977 81.569 171.977 81.667C171.977 81.958 171.492 82.248 171.395 82.248C171.201 82.248 171.201 82.151 171.104 82.056L171.105 81.473ZM169.65 82.73C169.747 82.829 170.911 83.314 170.911 83.797C170.911 83.797 170.911 83.896 170.813 83.991C170.716 84.184 170.425 84.38 170.328 84.475C170.037 84.378 169.843 84.184 169.746 83.893C169.649 83.699 169.552 83.504 169.455 83.311C169.553 83.217 169.553 83.023 169.65 82.73ZM168.001 82.344H168.388C168.582 82.442 168.873 82.733 168.873 82.928C168.873 83.217 168.485 83.315 168.485 83.315C168.194 83.315 168.097 83.122 168 82.733L168.001 82.344ZM170.038 67.791C169.747 67.791 169.165 67.403 168.873 67.306C169.067 66.919 170.62 66.434 170.813 66.434C171.007 66.434 171.396 66.627 171.396 66.919C171.396 67.403 170.135 67.791 170.038 67.791ZM172.948 62.357H173.142C173.239 62.552 173.239 62.552 173.239 62.746C173.239 63.135 172.657 63.812 172.269 63.812H171.784C171.687 63.715 171.687 63.715 171.687 63.522C171.687 63.231 172.658 62.455 172.948 62.357ZM170.038 65.365C170.038 65.172 170.717 64.783 170.912 64.783C171.106 64.783 171.299 64.881 171.397 64.881V65.365C171.203 65.463 170.912 65.753 170.718 65.753H170.039L170.038 65.365ZM167.418 64.687C167.418 64.202 168.486 63.426 168.874 63.426C169.262 63.426 169.262 63.716 169.262 63.91C169.262 64.298 168.68 65.656 168.098 66.238C168.001 66.336 167.807 66.433 167.613 66.433C167.419 66.433 167.419 66.335 167.322 66.238V66.141V64.686L167.418 64.687ZM166.545 65.365C166.642 65.559 166.739 65.948 166.836 66.141C166.836 66.141 166.836 66.238 166.933 66.238V67.403C166.74 67.5 166.642 67.693 166.448 67.693C166.06 67.693 165.963 66.821 165.963 66.723C165.963 66.626 166.061 66.335 166.157 66.141C166.255 65.851 166.545 65.365 166.545 65.365ZM144.716 59.351C144.522 59.351 144.134 59.06 143.842 58.962V58.672C144.327 58.38 144.327 58.187 144.716 58.187C145.007 58.187 145.589 58.769 145.589 58.962C145.589 59.157 144.813 59.351 144.716 59.351ZM148.791 61.485C148.597 61.485 148.5 61.679 148.306 61.679C147.53 61.679 146.85 61.097 146.172 60.902V60.709C146.172 60.515 147.142 59.545 147.53 58.865H147.821C148.015 59.157 148.5 59.35 148.5 59.739C148.5 59.932 148.112 60.514 148.112 60.612C148.112 60.805 148.403 61.097 148.694 61.291V61.485H148.791ZM142.873 68.664C142.873 68.276 143.553 67.791 143.747 67.791C143.94 67.791 144.038 67.985 144.135 67.985C144.329 67.985 144.814 67.693 145.105 67.403C145.299 67.403 145.299 67.5 145.493 67.596C145.493 68.178 143.843 68.859 143.358 68.859C143.067 68.956 142.873 68.859 142.873 68.664ZM145.88 70.992C145.492 70.992 145.492 70.895 145.007 70.508C145.298 69.926 145.201 68.86 145.977 68.471C146.365 68.374 146.85 68.277 147.238 68.179C147.335 68.374 147.432 68.568 147.432 68.762C147.433 69.731 146.948 70.992 145.88 70.992ZM146.948 67.208C146.754 67.208 146.463 67.016 145.978 67.016V66.336C146.657 66.434 147.433 66.336 148.209 66.336V67.016C148.015 67.113 147.918 67.113 147.821 67.306H146.948V67.208ZM148.5 70.314C148.209 70.314 147.821 69.829 147.821 69.731C147.821 69.44 148.597 68.47 148.791 68.47C148.985 68.47 148.985 68.567 149.179 68.567C149.179 68.859 149.276 69.246 149.276 69.44C149.276 69.926 148.985 70.314 148.5 70.314ZM151.119 68.179C150.926 68.374 150.731 68.568 150.537 68.762H150.052V68.082C150.245 67.985 150.537 67.693 150.731 67.693C150.925 67.693 150.925 67.693 151.119 67.791V68.179ZM148.791 76.62C148.694 76.717 148.694 77.008 148.5 77.008C148.306 77.008 147.918 76.62 147.627 76.523V76.232C147.821 76.136 147.918 76.039 148.112 76.039C148.403 75.94 148.597 76.328 148.791 76.62ZM144.231 78.269C144.134 78.172 144.134 78.269 144.134 78.076C144.134 77.785 144.716 77.3 144.91 77.3C145.104 77.3 145.104 77.397 145.202 77.397V77.689C145.105 77.882 144.813 78.173 144.523 78.367H144.232L144.231 78.269ZM145.783 79.918C145.492 79.918 144.813 79.725 144.813 79.434C144.813 78.754 147.142 77.688 147.53 77.688C147.821 77.688 148.306 77.979 148.306 78.366C148.306 79.336 146.172 79.918 145.783 79.918ZM149.373 79.725C149.179 79.725 148.985 79.822 148.888 80.016H148.403V79.628C148.5 79.434 148.791 79.434 148.791 79.239H149.373V79.725ZM146.075 88.553C145.881 88.553 145.881 88.36 145.687 88.36C145.493 88.36 145.202 88.75 145.008 88.75C144.814 88.75 143.843 88.265 143.262 87.876V87.584C143.65 87.294 144.911 86.905 144.911 86.905C145.105 86.905 145.687 87.389 145.784 87.389H146.949C146.949 87.487 147.143 87.582 147.143 87.778C147.239 87.971 146.269 88.553 146.075 88.553ZM147.918 86.611C147.336 86.611 146.463 86.322 146.463 85.64C146.463 85.447 146.657 85.253 146.851 85.06H148.307C148.307 85.06 149.859 85.06 149.859 85.64C149.858 86.225 148.015 86.611 147.918 86.611ZM148.112 97.965C147.918 98.061 147.723 98.157 147.627 98.157H146.948C146.948 98.06 146.851 98.06 146.851 97.965C146.851 97.77 147.336 97.382 147.53 97.382C147.724 97.382 147.918 97.481 148.113 97.576L148.112 97.965ZM148.791 96.313V95.926C148.888 95.926 148.985 95.733 149.179 95.733H149.955C150.343 95.733 150.731 96.412 150.731 96.508C150.731 96.701 150.634 96.701 150.537 96.897H149.47C149.276 96.702 149.179 96.509 148.791 96.313ZM151.411 98.546C151.411 98.936 151.023 99.71 150.538 99.71C150.053 99.71 149.956 99.225 149.956 99.128C149.956 98.738 150.538 98.061 150.926 97.77H151.411V98.546ZM168.873 97.479C168.195 97.479 167.903 96.024 167.903 95.83C167.903 95.733 167.903 95.442 167.903 95.248H168.291C168.485 95.54 169.456 96.8 169.456 97.092C169.456 97.382 168.971 97.479 168.873 97.479ZM170.038 98.157V97.673C170.038 97.481 170.135 97.576 170.135 97.481C170.328 97.481 170.62 97.869 170.814 98.159C170.717 98.157 170.329 98.061 170.038 98.157ZM160.434 90.203C160.627 90.008 160.725 90.008 160.725 89.814H161.21C162.083 90.687 162.568 91.753 163.053 92.82C163.538 94.179 163.927 95.539 164.412 96.799V96.994C164.412 96.994 164.412 97.091 164.218 97.091C163.442 97.091 160.628 93.792 160.435 93.6V92.823V92.725L160.434 90.203ZM155.291 93.016C155.194 92.725 155.097 92.337 155.097 92.145C155.097 91.852 155.291 91.463 155.582 91.463C155.679 91.463 156.164 92.145 156.746 92.82C157.619 93.986 158.88 95.634 159.365 96.411C159.656 96.896 159.656 97.965 159.656 98.156C159.656 98.351 159.559 98.738 159.463 99.031H159.075C158.881 98.738 156.067 94.956 155.291 93.016ZM155.485 74.97C155.485 74.389 158.395 69.246 158.881 68.179C159.075 68.179 159.172 68.277 159.366 68.471V74.97V75.068V78.464C158.784 77.785 158.59 76.524 157.62 76.137C157.329 76.038 155.485 75.94 155.485 74.97ZM159.463 86.611V87.388C159.269 87.388 159.075 87.484 158.88 87.388C158.88 87.29 158.783 87.29 158.783 87.097C158.783 86.904 158.977 86.806 159.268 86.515H159.462L159.463 86.611ZM158.493 80.598C158.493 80.113 158.978 79.628 159.269 79.143V81.568H158.978C158.784 80.889 158.493 81.083 158.493 80.598ZM157.814 82.928H158.105C158.202 83.315 158.396 83.606 158.396 83.897C158.396 83.995 158.396 84.09 158.396 84.286C158.396 84.482 158.3 85.159 158.202 85.547C157.717 85.355 157.523 84.482 157.523 84.092C157.523 83.995 157.523 83.801 157.523 83.801C157.522 83.604 157.716 83.217 157.814 82.928ZM159.463 93.21C159.365 93.307 159.269 93.402 159.075 93.402C158.978 93.402 158.686 93.21 158.59 92.918C158.396 92.531 158.105 92.145 158.105 92.046V91.075C158.493 90.687 158.784 90.396 159.075 90.008H159.463V92.821V92.919V93.21ZM169.165 77.008C168.776 77.008 168.195 76.425 168.195 76.136C168.195 75.747 168.873 75.651 169.165 75.651C169.456 75.651 170.62 75.844 170.813 76.039C170.621 76.231 169.358 77.008 169.165 77.008ZM168.971 74.68C169.358 74 170.038 73.71 170.62 73.71C170.911 73.71 171.396 73.903 171.396 74.292C171.396 74.582 171.105 74.873 170.813 74.97C170.425 75.068 169.94 75.165 169.746 75.165C169.357 75.165 169.357 75.165 168.872 75.165V75.067V74.97V74.68H168.971ZM165.285 75.067V76.231C165.285 76.91 162.859 82.731 161.306 82.731H160.433V75.166V75.068V67.792H160.918C163.247 67.791 164.993 74.195 165.285 75.067ZM166.545 60.902C166.254 61.194 164.411 62.455 163.732 62.455C163.538 62.455 163.538 62.357 163.344 62.357V61.97C163.344 61.486 165.478 60.321 165.866 60.321C166.06 60.321 166.351 60.418 166.545 60.515V60.902ZM166.255 56.828C166.448 56.828 167.031 57.217 167.031 57.507C167.031 57.702 166.546 58.38 166.352 58.962H166.061C166.061 58.574 165.867 58.283 165.867 57.992C165.769 57.604 165.769 56.828 166.255 56.828ZM163.926 59.06C164.315 59.06 164.411 59.351 164.411 59.545C164.411 59.836 163.926 60.612 163.635 60.612C163.441 60.612 163.344 60.417 163.246 60.417C163.052 60.417 163.052 60.515 162.858 60.612H162.18C162.18 60.612 162.082 60.612 162.082 60.417C162.082 59.933 163.441 59.06 163.926 59.06ZM155.485 55.276H155.776C155.873 55.664 156.067 56.149 156.067 56.247C156.067 56.439 155.776 56.828 155.582 57.119H154.903V56.828C155 56.828 155 56.828 155 56.634C155 56.44 154.903 56.343 154.903 56.15C154.903 55.858 155.194 55.47 155.485 55.276ZM151.993 50.813C152.866 50.813 153.74 52.268 153.74 52.656C153.74 52.947 153.546 53.14 153.352 53.529C152.964 53.336 151.509 51.881 151.509 51.2C151.508 51.007 151.702 50.813 151.993 50.813ZM149.956 51.104C150.053 51.104 150.149 51.007 150.247 50.911C150.344 50.911 151.217 51.882 151.217 52.172C151.217 52.561 150.926 52.657 150.732 52.657C150.538 52.657 150.247 52.269 150.053 51.978V51.104H149.956ZM149.956 54.015C150.149 53.626 150.247 53.433 150.538 53.433C151.023 53.433 152.575 54.791 152.575 55.179C152.575 55.373 152.478 55.47 152.478 55.567H152.089C151.508 55.47 150.343 54.499 149.956 54.015ZM153.836 58.574H152.478C152.089 58.574 150.829 56.925 150.538 56.536C150.635 56.149 150.926 56.149 151.217 56.149C152.09 56.149 154.128 57.021 154.128 58.088C154.03 58.283 153.933 58.38 153.836 58.574ZM153.836 54.015C153.836 53.626 154.127 53.239 154.224 52.948H154.515C154.709 53.239 155.097 53.919 155.097 54.015C155.097 54.307 154.612 55.277 154.515 55.373C154.127 55.179 153.836 54.307 153.836 54.015ZM155.389 64.687C154.904 64.687 154.709 63.813 154.709 63.716C154.709 62.746 155.583 62.843 156.067 62.843C157.522 62.843 158.395 64.105 158.395 65.463C158.395 65.56 158.201 65.948 158.008 66.142C157.425 65.753 157.716 63.911 156.552 63.911C156.067 63.813 155.97 64.687 155.389 64.687ZM152.866 77.784V75.067V74.97V74.68C152.866 73.127 156.553 67.986 156.941 68.374C156.165 70.508 154.613 72.739 154.225 74.97C154.225 75.068 154.225 75.068 154.225 75.165C154.225 75.455 154.128 75.747 154.128 76.038C154.128 76.62 154.128 77.978 155.098 77.978C155.292 77.978 155.971 77.59 156.165 77.59C156.844 77.59 156.941 78.56 156.941 78.753C156.941 79.53 156.068 79.53 155.68 79.53C155 79.434 152.866 78.851 152.866 77.784ZM155.291 83.896V81.857C155.291 81.857 155.388 81.857 155.388 81.47H155.873C156.067 81.759 156.261 82.441 156.261 82.633V83.797V83.896V85.543C156.164 85.64 156.164 85.737 155.969 85.737C155.29 85.737 155.581 84.67 155.29 84.573L155.291 83.896ZM152.963 92.82C152.769 92.24 152.672 91.658 152.672 91.075V90.105C152.672 89.037 154.806 87.679 155.194 87.292H155.97C156.746 87.292 156.94 87.777 156.94 88.359C156.94 88.552 156.94 88.941 156.552 88.941C156.359 88.941 155.485 88.552 155.291 88.552C154.029 88.552 153.739 90.589 153.739 91.365C153.739 91.754 153.836 92.238 154.03 92.722C154.03 92.722 154.03 92.82 154.127 92.915C154.127 92.915 154.127 92.915 154.127 93.013C155.194 95.633 157.911 99.125 157.911 99.707C157.911 99.901 157.814 100.095 157.814 100.289C155.97 97.867 153.739 95.441 152.963 92.82ZM155.582 102.62C155.776 102.523 155.97 102.428 156.067 102.232H156.359C156.456 102.33 156.552 102.33 156.552 102.523C156.552 102.716 156.067 103.007 155.97 103.007C155.776 103.007 155.679 102.91 155.582 102.814V102.62ZM131.91 109.994C130.552 109.994 129.775 108.83 129.775 107.859C129.775 107.277 130.26 105.822 131.327 105.822H135.984L138.7 109.994H131.91ZM151.508 109.994L148.306 105.822H155.485L158.201 109.994H151.508ZM164.993 104.949H158.59C161.112 102.038 160.434 103.009 160.434 100.583C160.434 99.42 160.434 98.837 161.112 97.576C161.695 97.673 161.889 98.351 161.986 98.449C162.762 99.322 164.023 100.193 164.508 101.165C164.702 101.65 164.702 101.941 164.896 102.523C164.896 104.269 164.993 104.269 164.993 104.462C165.09 104.756 164.993 104.854 164.993 104.949ZM165.285 94.857C165.187 94.857 165.187 94.956 165.187 95.15C165.187 95.15 165.187 95.247 164.993 95.247C164.702 95.247 164.508 94.665 164.508 94.665V93.402H164.993C165.091 93.597 165.187 93.792 165.382 93.986V94.857H165.285ZM166.545 94.182C167.03 94.182 167.127 94.956 167.127 95.247C167.127 95.441 167.03 96.312 166.836 96.702C166.642 96.411 165.866 95.441 165.866 95.15C165.866 94.857 166.352 94.182 166.545 94.182ZM171.105 109.994L168.195 105.822H176.344L179.254 109.994H171.105Z" fill="black"/>
</g>
<defs>
<clipPath id="clip0_1_23">
<rect width="259.367" height="65.496" fill="white" transform="translate(129 47)"/>
</clipPath>
</defs>
</svg>
