<svg width="168" height="61" viewBox="0 0 168 61" fill="none" xmlns="http://www.w3.org/2000/svg">
<path d="M13.8504 6.36212H22.1202V42.0403H26.0261V42.7458H17.8573V38.3559H17.7563C17.6201 38.7601 17.4181 39.2484 17.148 39.8184C16.8779 40.3908 16.4786 40.9469 15.9548 41.4842C15.4311 42.0239 14.7711 42.4865 13.9772 42.872C13.181 43.2575 12.2086 43.4514 11.0601 43.4514C9.57102 43.4514 8.15944 43.1313 6.82302 42.4935C5.4866 41.8557 4.31224 40.9959 3.2976 39.9189C2.28295 38.8418 1.47969 37.6059 0.887815 36.2088C0.295938 34.8163 0 33.3444 0 31.7954C0 30.2815 0.286543 28.8353 0.861979 27.4545C1.43741 26.0761 2.21484 24.8729 3.1966 23.8472C4.17602 22.8216 5.31045 21.9969 6.5952 21.3754C7.87995 20.7539 9.24925 20.4409 10.7055 20.4409C12.5656 20.4409 14.0712 20.8941 15.2197 21.8029C16.3682 22.7118 17.1809 23.8215 17.6553 25.1346H17.7563V7.06769H13.8504V6.36212ZM5.07323 31.1903C5.07323 32.9403 5.1249 34.529 5.2259 35.9588C5.32689 37.3886 5.58055 38.6082 5.98688 39.6175C6.39321 40.6268 7.00153 41.4001 7.81418 41.9398C8.62684 42.4795 9.72369 42.7482 11.1118 42.7482C12.5328 42.7482 13.6742 42.4445 14.5362 41.8393C15.3982 41.2342 16.0652 40.4516 16.5397 39.4937C17.0141 38.5358 17.3335 37.4681 17.5026 36.2882C17.6717 35.1107 17.7563 33.9659 17.7563 32.8561C17.7563 31.5431 17.7305 30.4077 17.6811 29.4498C17.6295 28.4919 17.5379 27.6414 17.4016 26.9008C17.2654 26.1602 17.0799 25.5224 16.8427 24.9827C16.6054 24.4453 16.3189 23.9407 15.9807 23.4688C15.4733 22.7959 14.8134 22.2422 14.0031 21.8029C13.1904 21.3661 12.1593 21.1464 10.9074 21.1464C9.72369 21.1464 8.75132 21.3824 7.99034 21.852C7.22935 22.324 6.63747 22.9968 6.21471 23.8706C5.79194 24.7467 5.496 25.7981 5.32689 27.0247C5.15778 28.2559 5.07323 29.6437 5.07323 31.1903Z" fill="black"/>
<path d="M26.7871 42.0403H30.693V21.8029H26.7871V21.0974H34.956V26.1953H35.057C35.1908 25.6906 35.4116 25.1182 35.7169 24.4804C36.0223 23.8426 36.4427 23.2281 36.9853 22.6394C37.5255 22.0506 38.1784 21.5553 38.9394 21.1511C39.7004 20.7469 40.6211 20.546 41.7038 20.546C42.4813 20.546 43.1577 20.6722 43.7331 20.9245C44.3086 21.1768 44.7807 21.4969 45.1541 21.8824C45.5252 22.2702 45.7953 22.7141 45.9668 23.2188C46.1359 23.7234 46.2204 24.2281 46.2204 24.7327C46.2204 25.8425 45.9668 26.5831 45.4594 26.9522C44.9521 27.3237 44.3602 27.5083 43.6838 27.5083C42.1947 27.5083 41.4525 27.0363 41.4525 26.0948C41.4525 25.7911 41.4854 25.5481 41.5535 25.3635C41.6216 25.1789 41.6968 24.9944 41.7813 24.8075C41.8659 24.6229 41.9411 24.4126 42.0092 24.1767C42.0773 23.9407 42.1102 23.6043 42.1102 23.1674C42.1102 22.0903 41.5183 21.553 40.3345 21.553C39.792 21.553 39.2189 21.7539 38.6106 22.1581C38.0023 22.5623 37.4339 23.151 36.9101 23.9243C36.3863 24.6977 35.9471 25.6322 35.5901 26.7256C35.2355 27.819 35.057 29.0713 35.057 30.4848V42.0403H39.4702V42.7458H26.7871V42.0403V42.0403Z" fill="black"/>
<path d="M51.4416 30.2301C51.4416 30.5665 51.4322 30.9123 51.4158 31.2651C51.3993 31.6179 51.3899 32.0641 51.3899 32.6015C51.3899 33.7112 51.4581 34.8724 51.5919 36.0826C51.7258 37.2928 52.0241 38.3886 52.4797 39.3628C52.9354 40.3394 53.6118 41.1455 54.509 41.7856C55.4039 42.4258 56.597 42.7435 58.0861 42.7435C59.5752 42.7435 60.8013 42.5262 61.7642 42.087C62.7272 41.6501 63.4882 41.1198 64.0472 40.4983C64.6062 39.8768 65.0196 39.246 65.2897 38.6059C65.5598 37.968 65.7617 37.4447 65.898 37.0405L66.659 37.1924C66.558 37.5639 66.363 38.0919 66.0765 38.7811C65.7899 39.4703 65.3319 40.1619 64.7072 40.8511C64.0801 41.5403 63.2369 42.1454 62.1706 42.6687C61.1042 43.1897 59.7255 43.4514 58.0368 43.4514C56.3457 43.4514 54.7815 43.1827 53.3441 42.643C51.9067 42.1057 50.6642 41.33 49.6143 40.3207C48.5668 39.3114 47.7541 38.1082 47.1787 36.7134C46.6033 35.3186 46.3167 33.7603 46.3167 32.0454C46.3167 30.5642 46.6126 29.1274 47.2045 27.7302C47.7964 26.3354 48.6067 25.0972 49.6401 24.0201C50.6712 22.9431 51.8808 22.0763 53.2666 21.4221C54.6523 20.7656 56.1414 20.4385 57.7315 20.4385C58.678 20.4385 59.6927 20.6068 60.7754 20.9432C61.8582 21.2796 62.8634 21.8263 63.7935 22.5833C64.7236 23.3403 65.501 24.3425 66.1281 25.5855C66.7529 26.8307 67.0676 28.3774 67.0676 30.2278H51.4416V30.2301ZM61.8934 29.5245C61.9615 29.0549 61.9944 28.6157 61.9944 28.2115C61.9944 27.8073 61.9944 27.3868 61.9944 26.9499C61.9944 25.8074 61.884 24.8636 61.6656 24.1229C61.4448 23.3823 61.1418 22.7936 60.7519 22.3567C60.362 21.9198 59.89 21.609 59.331 21.4221C58.772 21.2376 58.173 21.1441 57.5295 21.1441C56.3786 21.1441 55.4321 21.3707 54.6875 21.8263C53.943 22.2796 53.3511 22.894 52.9119 23.6673C52.4727 24.4407 52.1415 25.3332 51.9231 26.3424C51.7023 27.3517 51.559 28.4124 51.4909 29.5222H61.8934V29.5245Z" fill="black"/>
<path d="M70.2126 35.6808H70.7716C71.0088 36.4891 71.3118 37.3045 71.6852 38.1292C72.0563 38.954 72.5566 39.7109 73.1814 40.4002C73.8061 41.0894 74.5765 41.6548 75.4901 42.0917C76.4038 42.5286 77.503 42.7482 78.7877 42.7482C79.8705 42.7482 80.8335 42.4211 81.679 41.7646C82.5246 41.1081 82.9473 40.0404 82.9473 38.5591C82.9473 37.2812 82.6185 36.3817 81.9585 35.8583C81.2985 35.3373 80.5305 34.9238 79.6497 34.6224L75.6921 33.2603C75.1848 33.0921 74.6352 32.8818 74.0433 32.6295C73.4515 32.3772 72.9019 32.0244 72.3945 31.5688C71.8872 31.1156 71.4738 30.5338 71.1521 29.8283C70.8303 29.1227 70.6706 28.2138 70.6706 27.1041C70.6706 26.1625 70.8561 25.2864 71.2296 24.4804C71.6007 23.672 72.108 22.9664 72.7515 22.3613C73.3927 21.7562 74.1631 21.2843 75.0603 20.9478C75.9552 20.6114 76.9299 20.4432 77.9774 20.4432C78.722 20.4432 79.3209 20.5016 79.7789 20.6208C80.2346 20.7399 80.6338 20.8567 80.972 20.9735C81.3103 21.0927 81.6132 21.2095 81.8857 21.3263C82.1558 21.4455 82.4776 21.5039 82.8487 21.5039C83.2198 21.5039 83.4899 21.3707 83.6613 21.0997H84.2203V26.8518H83.6613C83.4241 26.1111 83.154 25.3962 82.8487 24.707C82.5433 24.0178 82.1816 23.4033 81.7589 22.866C81.3361 22.3286 80.8123 21.9081 80.1852 21.6044C79.5581 21.3006 78.823 21.1511 77.9774 21.1511C76.3545 21.1511 75.0932 21.5132 74.1983 22.2352C73.3011 22.9594 72.8549 23.9267 72.8549 25.1369C72.8549 26.2139 73.2354 27.0293 73.9964 27.5854C74.7573 28.1414 75.8824 28.6531 77.3691 29.125L81.073 30.3352C82.6631 30.8726 83.9643 31.6132 84.979 32.5548C85.9936 33.4963 86.5009 34.7416 86.5009 36.2882C86.5009 37.1971 86.3224 38.0895 85.9678 38.9633C85.6131 39.8394 85.087 40.6034 84.3941 41.2599C83.7013 41.9164 82.8557 42.4468 81.8575 42.8486C80.8593 43.2528 79.7178 43.4538 78.4331 43.4538C77.6885 43.4538 77.0027 43.379 76.378 43.2271C75.7509 43.0753 75.1778 42.9164 74.654 42.7482C74.1302 42.58 73.6464 42.4211 73.2072 42.2692C72.768 42.1174 72.3617 42.0426 71.9906 42.0426C71.6171 42.0426 71.347 42.1174 71.1779 42.2692C71.0088 42.4211 70.8726 42.58 70.7716 42.7482H70.2126V35.6808V35.6808Z" fill="black"/>
<path d="M89.7938 35.6808H90.3528C90.59 36.4891 90.893 37.3045 91.2665 38.1292C91.6376 38.954 92.1378 39.7109 92.7626 40.4002C93.3874 41.0894 94.1577 41.6548 95.0714 42.0917C95.985 42.5286 97.0842 42.7482 98.369 42.7482C99.4517 42.7482 100.415 42.4211 101.26 41.7646C102.106 41.1081 102.529 40.0404 102.529 38.5591C102.529 37.2812 102.2 36.3817 101.54 35.8583C100.88 35.3373 100.112 34.9238 99.231 34.6224L95.2734 33.2603C94.7661 33.0921 94.2165 32.8818 93.6246 32.6295C93.0327 32.3772 92.4831 32.0244 91.9758 31.5688C91.4685 31.1156 91.0551 30.5338 90.7333 29.8283C90.4115 29.1227 90.2518 28.2138 90.2518 27.1041C90.2518 26.1625 90.4374 25.2864 90.8108 24.4804C91.1819 23.672 91.6892 22.9664 92.3328 22.3613C92.974 21.7562 93.7444 21.2843 94.6416 20.9478C95.5364 20.6114 96.5111 20.4432 97.5587 20.4432C98.3032 20.4432 98.9021 20.5016 99.3601 20.6208C99.8158 20.7399 100.215 20.8567 100.553 20.9735C100.892 21.0927 101.194 21.2095 101.467 21.3263C101.737 21.4455 102.059 21.5039 102.43 21.5039C102.801 21.5039 103.071 21.3707 103.243 21.0997H103.802V26.8518H103.243C103.005 26.1111 102.735 25.3962 102.43 24.707C102.125 24.0178 101.763 23.4033 101.34 22.866C100.917 22.3286 100.394 21.9081 99.7665 21.6044C99.1394 21.3006 98.4042 21.1511 97.5587 21.1511C95.9357 21.1511 94.6745 21.5132 93.7796 22.2352C92.8824 22.9594 92.4361 23.9267 92.4361 25.1369C92.4361 26.2139 92.8166 27.0293 93.5776 27.5854C94.3386 28.1414 95.4636 28.6531 96.9504 29.125L100.654 30.3352C102.244 30.8726 103.546 31.6132 104.56 32.5548C105.575 33.4963 106.082 34.7416 106.082 36.2882C106.082 37.1971 105.904 38.0895 105.549 38.9633C105.194 39.8394 104.668 40.6034 103.975 41.2599C103.283 41.9164 102.437 42.4468 101.439 42.8486C100.441 43.2528 99.2991 43.4538 98.0143 43.4538C97.2698 43.4538 96.584 43.379 95.9592 43.2271C95.3321 43.0753 94.759 42.9164 94.2352 42.7482C93.7115 42.58 93.2276 42.4211 92.7884 42.2692C92.3492 42.1174 91.9429 42.0426 91.5718 42.0426C91.1984 42.0426 90.9283 42.1174 90.7591 42.2692C90.59 42.4211 90.4538 42.58 90.3528 42.7482H89.7938V35.6808V35.6808Z" fill="black"/>
<path d="M107.956 42.0403H111.862V21.803H107.956V21.0974H116.226V42.0403H120.132V42.7459H107.956V42.0403Z" fill="black"/>
<path d="M120.945 56.1704H124.851V21.803H120.945V21.0974H129.114V25.3355H129.215C129.722 23.922 130.558 22.7538 131.725 21.8287C132.893 20.9035 134.405 20.4409 136.266 20.4409C137.719 20.4409 139.089 20.7516 140.376 21.3754C141.661 21.9992 142.793 22.8216 143.774 23.8472C144.754 24.8729 145.534 26.0761 146.109 27.4545C146.684 28.8353 146.971 30.2815 146.971 31.7955C146.971 33.3421 146.675 34.8163 146.083 36.2111C145.491 37.6083 144.688 38.8442 143.673 39.9212C142.659 40.9983 141.482 41.8557 140.148 42.4959C138.812 43.1337 137.4 43.4538 135.911 43.4538C134.76 43.4538 133.788 43.2598 132.994 42.8744C132.2 42.4889 131.547 42.0333 131.04 41.5123C130.532 40.9913 130.142 40.4516 129.872 39.8979C129.602 39.3418 129.417 38.8979 129.313 38.5615H129.212V56.1728H133.118V56.8783H120.943V56.1704H120.945ZM141.895 31.1903C141.895 29.6437 141.811 28.2559 141.642 27.027C141.473 25.8004 141.177 24.7491 140.754 23.8729C140.331 22.9992 139.739 22.3263 138.978 21.8544C138.217 21.3824 137.245 21.1488 136.061 21.1488C134.809 21.1488 133.778 21.3684 132.966 21.8053C132.153 22.2422 131.495 22.7982 130.988 23.4711C130.615 23.943 130.319 24.4477 130.1 24.985C129.879 25.5247 129.703 26.1626 129.567 26.9032C129.431 27.6438 129.339 28.4919 129.288 29.4521C129.236 30.41 129.212 31.5455 129.212 32.8585C129.212 33.9682 129.297 35.1131 129.466 36.2906C129.635 37.4681 129.957 38.5358 130.429 39.496C130.901 40.4539 131.57 41.2366 132.432 41.8417C133.294 42.4468 134.436 42.7505 135.857 42.7505C137.243 42.7505 138.342 42.4818 139.154 41.9422C139.967 41.4048 140.575 40.6291 140.982 39.6198C141.388 38.6105 141.642 37.391 141.743 35.9611C141.846 34.529 141.895 32.9403 141.895 31.1903Z" fill="black"/>
<path d="M148.998 42.0403H152.904V21.803H148.998V21.0974H157.268V42.0403H161.174V42.7459H148.998V42.0403Z" fill="black"/>
<path d="M104.884 7.24292C106.052 2.21513 111.094 -0.917896 116.149 0.240925C121.203 1.40208 124.355 6.42053 123.188 11.4483C122.021 16.4761 116.978 19.6115 111.923 18.4503C106.869 17.2892 103.717 12.2707 104.884 7.24292ZM112.579 4.68697C111.63 4.46969 110.683 5.05845 110.465 5.99999C110.246 6.94387 110.836 7.88307 111.785 8.10269C112.734 8.31997 113.68 7.73121 113.899 6.78967C114.117 5.84579 113.528 4.90425 112.579 4.68697ZM111.465 9.48113C110.517 9.26385 109.572 9.85027 109.352 10.7941C109.133 11.738 109.723 12.6796 110.672 12.8968C111.62 13.1141 112.567 12.5254 112.785 11.5838C113.006 10.6399 112.414 9.6984 111.465 9.48113ZM117.398 5.79439C116.449 5.57711 115.503 6.16353 115.284 7.10741C115.066 8.05129 115.656 8.99049 116.604 9.21011C117.553 9.42739 118.5 8.84097 118.718 7.89709C118.937 6.95321 118.347 6.01167 117.398 5.79439ZM116.285 10.5885C115.336 10.3713 114.392 10.96 114.171 11.9016C113.953 12.8431 114.545 13.7847 115.491 14.0043C116.44 14.2215 117.387 13.6351 117.605 12.6912C117.826 11.7474 117.234 10.8058 116.285 10.5885Z" fill="black"/>
<path d="M149.158 10.9063C148.345 5.8084 151.842 1.02359 156.967 0.215214C162.092 -0.593157 166.902 2.88564 167.715 7.98352C168.528 13.0814 165.03 17.8662 159.905 18.6746C154.781 19.4806 149.968 16.0042 149.158 10.9063ZM155.33 5.66822C154.369 5.82008 153.714 6.71723 153.865 7.67279C154.017 8.62835 154.919 9.28019 155.88 9.13067C156.84 8.9788 157.496 8.08165 157.345 7.12609C157.193 6.17053 156.291 5.51869 155.33 5.66822ZM156.103 10.5278C155.142 10.6797 154.487 11.5768 154.637 12.5324C154.79 13.4879 155.692 14.1398 156.652 13.9902C157.613 13.8384 158.268 12.9412 158.118 11.9857C157.968 11.0301 157.063 10.3783 156.103 10.5278ZM160.215 4.89956C159.255 5.05143 158.6 5.94858 158.75 6.90414C158.903 7.8597 159.804 8.51154 160.765 8.36201C161.726 8.21015 162.381 7.313 162.231 6.35744C162.078 5.39954 161.176 4.7477 160.215 4.89956ZM160.988 9.75914C160.028 9.911 159.372 10.8082 159.523 11.7637C159.675 12.7193 160.577 13.3711 161.538 13.2216C162.498 13.0697 163.154 12.1726 163.003 11.217C162.853 10.2614 161.949 9.60728 160.988 9.75914Z" fill="black"/>
<path d="M10.4537 57.608C10.0121 57.608 9.61029 57.5197 9.24818 57.343C8.88607 57.1664 8.59462 56.9279 8.37382 56.6277C8.15302 56.3274 8.04262 55.9873 8.04262 55.6076C8.04262 54.9982 8.28991 54.5124 8.7845 54.1503C9.27909 53.7882 9.92382 53.5497 10.7187 53.4349L12.6926 53.1567V52.7725C12.6926 52.3486 12.569 52.0174 12.3217 51.7789C12.0832 51.5405 11.6902 51.4212 11.1426 51.4212C10.754 51.4212 10.4361 51.5007 10.1888 51.6597C9.94148 51.8187 9.76926 52.0218 9.67211 52.2691C9.61912 52.4016 9.52638 52.4678 9.3939 52.4678H8.79775C8.7006 52.4678 8.62553 52.4413 8.57254 52.3883C8.52838 52.3265 8.5063 52.2559 8.5063 52.1764C8.5063 52.0439 8.55487 51.8805 8.65202 51.6862C8.75801 51.4919 8.91698 51.302 9.12895 51.1165C9.34091 50.9311 9.61029 50.7765 9.93707 50.6529C10.2727 50.5204 10.6789 50.4541 11.1559 50.4541C11.6858 50.4541 12.1318 50.5248 12.4939 50.6661C12.856 50.7986 13.1386 50.9796 13.3418 51.2093C13.5537 51.4389 13.7039 51.6994 13.7922 51.9909C13.8894 52.2824 13.9379 52.5782 13.9379 52.8785V57.1708C13.9379 57.2591 13.907 57.3342 13.8452 57.396C13.7922 57.449 13.7215 57.4755 13.6332 57.4755H13.0238C12.9267 57.4755 12.8516 57.449 12.7986 57.396C12.7456 57.3342 12.7191 57.2591 12.7191 57.1708V56.6012C12.6043 56.7601 12.4497 56.9191 12.2554 57.0781C12.0611 57.2282 11.8183 57.3563 11.5268 57.4623C11.2354 57.5594 10.8777 57.608 10.4537 57.608ZM10.7319 56.6144C11.094 56.6144 11.4252 56.5393 11.7255 56.3892C12.0258 56.2302 12.2599 55.9873 12.4277 55.6606C12.6043 55.3338 12.6926 54.9231 12.6926 54.4285V54.0576L11.1559 54.2828C10.5288 54.3711 10.0563 54.5212 9.73835 54.7332C9.4204 54.9363 9.26143 55.1969 9.26143 55.5148C9.26143 55.7621 9.33208 55.9697 9.47339 56.1375C9.62353 56.2965 9.809 56.4157 10.0298 56.4952C10.2594 56.5747 10.4935 56.6144 10.7319 56.6144Z" fill="black"/>
<g clip-path="url(#clip0_1_481)">
<path d="M38.7639 51.2012C38.4603 50.8976 38.0739 50.6492 37.6875 50.4836C36.8595 50.1248 35.8935 50.1248 35.0655 50.4836C34.2375 50.8148 33.6027 51.4772 33.2439 52.2776C33.0507 52.6916 32.9679 53.1332 32.9679 53.6024C32.9679 54.044 33.0507 54.5132 33.2439 54.9272C33.5751 55.7552 34.2375 56.39 35.0379 56.7488C35.4519 56.942 35.8935 57.0248 36.3627 57.0248H36.4455V55.838H36.3627C36.0591 55.838 35.7831 55.7828 35.5071 55.6724C34.9827 55.424 34.5687 55.01 34.3203 54.4856C34.2099 54.2096 34.1547 53.906 34.1547 53.63C34.1547 53.3264 34.2099 53.0504 34.3479 52.7744C34.4583 52.4984 34.6239 52.2776 34.8171 52.0568C35.4519 51.422 36.4179 51.2288 37.2735 51.5876C37.5495 51.698 37.7703 51.8636 37.9911 52.0568C38.1843 52.25 38.3499 52.4984 38.4603 52.7744C38.5707 53.0504 38.6259 53.354 38.6259 53.6576V57.0524H39.785V53.6024C39.7574 52.7192 39.3986 51.836 38.7639 51.2012Z" fill="black"/>
<path d="M46.5746 51.2012C46.271 50.8976 45.8846 50.6492 45.4982 50.4561C45.0842 50.2629 44.615 50.1801 44.1734 50.1801C43.7042 50.1801 43.2626 50.2629 42.8486 50.4561C42.4346 50.6216 42.0758 50.87 41.7722 51.1736C41.4686 51.4772 41.2202 51.8636 41.0271 52.25C40.8339 52.664 40.7511 53.1056 40.7511 53.5748L40.7235 59.5088H41.8826L41.9102 53.5748C41.9102 53.2712 41.9654 52.9952 42.0758 52.7192C42.1862 52.4432 42.3518 52.1948 42.545 52.0016C42.7382 51.8084 42.9866 51.6428 43.2626 51.5324C43.5386 51.422 43.8422 51.3392 44.1458 51.3392C44.4494 51.3392 44.753 51.3944 45.029 51.5048C45.305 51.6152 45.5534 51.7808 45.7466 52.0016C45.9398 52.1948 46.1054 52.4432 46.2158 52.7192C46.3262 52.9952 46.3814 53.2988 46.3814 53.6024C46.3814 53.906 46.3262 54.2096 46.2158 54.4856C46.1054 54.7616 45.9398 55.01 45.719 55.2032C45.5258 55.3964 45.2774 55.562 45.0014 55.6724C44.7254 55.7828 44.4218 55.838 44.1182 55.838H44.0354V56.9972H44.1182C45.029 56.9972 45.9122 56.6384 46.547 56.0036C46.8506 55.6724 47.099 55.3136 47.2646 54.8996C47.4578 54.4856 47.5406 54.0164 47.5406 53.5748C47.5406 53.1332 47.4578 52.664 47.2646 52.25C47.1266 51.8912 46.8782 51.5324 46.5746 51.2012Z" fill="black"/>
<path d="M55.1305 52.2776C54.9649 51.8636 54.7165 51.5048 54.4129 51.2012C54.1093 50.8976 53.7229 50.6216 53.3365 50.4561C52.9225 50.2629 52.4533 50.1801 52.0117 50.1801C51.5425 50.1801 51.1009 50.2629 50.6869 50.4561C50.2729 50.6216 49.9141 50.87 49.6106 51.2012C49.307 51.5048 49.0586 51.8912 48.8654 52.2776C48.6722 52.6916 48.5894 53.1332 48.5894 53.6024L48.5618 59.564H49.721L49.7486 53.5748C49.7486 53.2712 49.8037 52.9676 49.9141 52.6916C50.0245 52.4156 50.1901 52.1672 50.3833 51.974C50.5765 51.7808 50.8249 51.6152 51.1009 51.5048C51.6529 51.284 52.2877 51.284 52.8673 51.5048C53.1433 51.6152 53.3641 51.7808 53.5849 52.0016C53.7781 52.2224 53.9437 52.4432 54.0541 52.7192C54.1645 52.9952 54.2197 53.2988 54.2197 53.6024C54.2197 53.906 54.1645 54.2096 54.0541 54.4856C53.9437 54.7616 53.7781 54.9824 53.5573 55.2032C53.3641 55.3964 53.1157 55.562 52.8397 55.6724C52.5637 55.7828 52.2601 55.838 51.9565 55.838H51.8737V56.9972H51.9565C52.8673 56.9972 53.7505 56.6384 54.3853 56.0036C54.6889 55.7 54.9373 55.3136 55.1029 54.9272C55.2961 54.5132 55.3789 54.044 55.3789 53.6024C55.4065 53.1332 55.2961 52.6916 55.1305 52.2776Z" fill="black"/>
<path d="M31.6983 52.25C31.5327 51.836 31.2843 51.4772 30.9531 51.1736C30.6495 50.87 30.2631 50.6216 29.8767 50.4284C28.8831 50.0145 27.7792 50.0697 26.8408 50.594C26.3992 50.87 26.0128 51.2288 25.7092 51.6704C24.7984 50.318 23.0596 49.7937 21.5416 50.4008C21.1276 50.5664 20.7688 50.8148 20.4652 51.1184C20.134 51.422 19.8856 51.7808 19.72 52.1948C19.5544 52.5812 19.4716 52.9952 19.444 53.4092L19.4164 56.9696H20.6032V53.5472C20.6032 53.2436 20.6584 52.94 20.7688 52.664C20.8792 52.388 21.0448 52.1672 21.2656 51.9464C21.4864 51.7532 21.7072 51.5876 21.9832 51.4772C22.2592 51.3668 22.5628 51.3116 22.8664 51.3116C23.4736 51.3116 24.0256 51.5324 24.4672 51.974C24.6604 52.1672 24.826 52.388 24.9364 52.664C25.0468 52.94 25.102 53.2436 25.102 53.5472V56.9696H26.2612V53.5472C26.2612 53.2436 26.3164 52.94 26.4544 52.664C26.5648 52.388 26.7304 52.1672 26.9512 51.9464C27.172 51.7532 27.3928 51.5876 27.6688 51.4772C27.9448 51.3668 28.2484 51.3116 28.5519 51.3116C28.8555 51.3116 29.1591 51.3668 29.4351 51.4772C29.7111 51.5876 29.9595 51.7532 30.1527 51.9464C30.3459 52.1396 30.5115 52.388 30.6219 52.664C30.7323 52.94 30.7875 53.2436 30.7875 53.5472V56.9972H31.9467V53.5748C31.9467 53.1332 31.8639 52.664 31.6983 52.25Z" fill="black"/>
</g>
<path d="M62.5637 57.608C61.9366 57.608 61.3934 57.4888 60.9342 57.2503C60.4838 57.003 60.1349 56.6542 59.8876 56.2037C59.6403 55.7445 59.5078 55.1969 59.4902 54.561C59.4813 54.4285 59.4769 54.2519 59.4769 54.0311C59.4769 53.8103 59.4813 53.6336 59.4902 53.5012C59.5078 52.8653 59.6403 52.3221 59.8876 51.8717C60.1349 51.4124 60.4838 51.0635 60.9342 50.8251C61.3934 50.5778 61.9366 50.4541 62.5637 50.4541C63.0759 50.4541 63.5131 50.5248 63.8752 50.6661C64.2461 50.8074 64.5509 50.9885 64.7893 51.2093C65.0278 51.4301 65.2044 51.6685 65.3192 51.9247C65.4429 52.1808 65.5091 52.4237 65.5179 52.6533C65.5268 52.7416 65.5003 52.8123 65.4385 52.8653C65.3766 52.9183 65.3016 52.9447 65.2132 52.9447H64.5773C64.489 52.9447 64.4228 52.9271 64.3786 52.8918C64.3345 52.8476 64.2903 52.7769 64.2461 52.6798C64.0872 52.247 63.8708 51.9423 63.597 51.7657C63.3232 51.589 62.9832 51.5007 62.5769 51.5007C62.047 51.5007 61.6142 51.6641 61.2786 51.9909C60.9518 52.3177 60.7752 52.8432 60.7487 53.5674C60.7399 53.8853 60.7399 54.1945 60.7487 54.4948C60.7752 55.2278 60.9518 55.7577 61.2786 56.0845C61.6142 56.4024 62.047 56.5614 62.5769 56.5614C62.9832 56.5614 63.3232 56.4731 63.597 56.2965C63.8708 56.1198 64.0872 55.8151 64.2461 55.3824C64.2903 55.2852 64.3345 55.2146 64.3786 55.1704C64.4228 55.1262 64.489 55.1042 64.5773 55.1042H65.2132C65.3016 55.1042 65.3766 55.1351 65.4385 55.1969C65.5003 55.2499 65.5268 55.3205 65.5179 55.4089C65.5091 55.5943 65.4694 55.7842 65.3987 55.9785C65.3281 56.1728 65.2132 56.3715 65.0543 56.5747C64.9041 56.769 64.7142 56.9456 64.4846 57.1046C64.255 57.2547 63.9812 57.3784 63.6632 57.4755C63.3453 57.5638 62.9788 57.608 62.5637 57.608ZM69.913 57.608C69.2418 57.608 68.681 57.4799 68.2306 57.2238C67.7801 56.9677 67.4357 56.6144 67.1972 56.164C66.9588 55.7047 66.8263 55.1836 66.7998 54.6007C66.7909 54.4506 66.7865 54.2607 66.7865 54.0311C66.7865 53.7926 66.7909 53.6027 66.7998 53.4614C66.8263 52.8697 66.9588 52.3486 67.1972 51.8982C67.4445 51.4477 67.7934 51.0945 68.2438 50.8383C68.6942 50.5822 69.2506 50.4541 69.913 50.4541C70.5754 50.4541 71.1318 50.5822 71.5823 50.8383C72.0327 51.0945 72.3771 51.4477 72.6156 51.8982C72.8629 52.3486 72.9998 52.8697 73.0263 53.4614C73.0351 53.6027 73.0395 53.7926 73.0395 54.0311C73.0395 54.2607 73.0351 54.4506 73.0263 54.6007C72.9998 55.1836 72.8673 55.7047 72.6288 56.164C72.3904 56.6144 72.0459 56.9677 71.5955 57.2238C71.1451 57.4799 70.5843 57.608 69.913 57.608ZM69.913 56.5879C70.4606 56.5879 70.8978 56.4157 71.2246 56.0712C71.5514 55.718 71.728 55.2057 71.7545 54.5345C71.7633 54.402 71.7677 54.2342 71.7677 54.0311C71.7677 53.8279 71.7633 53.6601 71.7545 53.5277C71.728 52.8564 71.5514 52.3486 71.2246 52.0041C70.8978 51.6509 70.4606 51.4742 69.913 51.4742C69.3655 51.4742 68.9239 51.6509 68.5882 52.0041C68.2615 52.3486 68.0892 52.8564 68.0716 53.5277C68.0627 53.6601 68.0583 53.8279 68.0583 54.0311C68.0583 54.2342 68.0627 54.402 68.0716 54.5345C68.0892 55.2057 68.2615 55.718 68.5882 56.0712C68.9239 56.4157 69.3655 56.5879 69.913 56.5879ZM75.0031 57.4755C74.9148 57.4755 74.8397 57.449 74.7779 57.396C74.7249 57.3342 74.6984 57.2591 74.6984 57.1708V50.8913C74.6984 50.803 74.7249 50.7324 74.7779 50.6794C74.8397 50.6175 74.9148 50.5866 75.0031 50.5866H75.5993C75.6876 50.5866 75.7582 50.6175 75.8112 50.6794C75.8731 50.7324 75.904 50.803 75.904 50.8913V51.355C76.1071 51.0812 76.3632 50.8648 76.6724 50.7059C76.9815 50.5381 77.3524 50.4541 77.7852 50.4541C78.7832 50.4453 79.4897 50.8516 79.9048 51.673C80.108 51.302 80.4038 51.0061 80.7924 50.7853C81.181 50.5645 81.6226 50.4541 82.1172 50.4541C82.5765 50.4541 82.9916 50.5601 83.3625 50.7721C83.7423 50.9841 84.0382 51.3064 84.2501 51.7392C84.4709 52.1631 84.5813 52.6975 84.5813 53.3422V57.1708C84.5813 57.2591 84.5504 57.3342 84.4886 57.396C84.4356 57.449 84.365 57.4755 84.2766 57.4755H83.654C83.5657 57.4755 83.4906 57.449 83.4288 57.396C83.3758 57.3342 83.3493 57.2591 83.3493 57.1708V53.4614C83.3493 52.9668 83.2786 52.5782 83.1373 52.2956C82.996 52.013 82.8061 51.8143 82.5677 51.6994C82.3292 51.5846 82.0687 51.5272 81.786 51.5272C81.5564 51.5272 81.3224 51.5846 81.0839 51.6994C80.8454 51.8143 80.6467 52.013 80.4877 52.2956C80.3376 52.5782 80.2625 52.9668 80.2625 53.4614V57.1708C80.2625 57.2591 80.2316 57.3342 80.1698 57.396C80.1168 57.449 80.0461 57.4755 79.9578 57.4755H79.3352C79.2469 57.4755 79.1718 57.449 79.11 57.396C79.057 57.3342 79.0305 57.2591 79.0305 57.1708V53.4614C79.0305 52.9668 78.9554 52.5782 78.8053 52.2956C78.6551 52.013 78.4608 51.8143 78.2224 51.6994C77.9839 51.5846 77.7322 51.5272 77.4672 51.5272C77.2376 51.5272 77.0035 51.5846 76.7651 51.6994C76.5266 51.8143 76.3279 52.013 76.1689 52.2956C76.0188 52.5782 75.9437 52.9624 75.9437 53.4482V57.1708C75.9437 57.2591 75.9128 57.3342 75.851 57.396C75.798 57.449 75.7273 57.4755 75.639 57.4755H75.0031ZM86.7894 59.9926C86.7011 59.9926 86.626 59.9617 86.5642 59.8999C86.5112 59.8469 86.4847 59.7762 86.4847 59.6879V50.8913C86.4847 50.803 86.5112 50.7324 86.5642 50.6794C86.626 50.6175 86.7011 50.5866 86.7894 50.5866H87.3988C87.4871 50.5866 87.5578 50.6175 87.6108 50.6794C87.6726 50.7324 87.7035 50.803 87.7035 50.8913V51.4742C87.9155 51.1828 88.1981 50.9399 88.5514 50.7456C88.9046 50.5513 89.3462 50.4541 89.8761 50.4541C90.3707 50.4541 90.7902 50.5381 91.1347 50.7059C91.488 50.8737 91.775 51.1033 91.9958 51.3947C92.2254 51.6862 92.3977 52.0174 92.5125 52.3883C92.6273 52.7593 92.6935 53.1567 92.7112 53.5806C92.72 53.722 92.7244 53.8721 92.7244 54.0311C92.7244 54.19 92.72 54.3402 92.7112 54.4815C92.6935 54.8966 92.6273 55.294 92.5125 55.6738C92.3977 56.0448 92.2254 56.376 91.9958 56.6674C91.775 56.95 91.488 57.1797 91.1347 57.3563C90.7902 57.5241 90.3707 57.608 89.8761 57.608C89.3639 57.608 88.9311 57.5153 88.5778 57.3298C88.2334 57.1355 87.9508 56.897 87.73 56.6144V59.6879C87.73 59.7762 87.7035 59.8469 87.6505 59.8999C87.5975 59.9617 87.5269 59.9926 87.4385 59.9926H86.7894ZM89.5979 56.5349C90.0572 56.5349 90.4149 56.4378 90.671 56.2435C90.936 56.0403 91.1259 55.7798 91.2407 55.4618C91.3555 55.1351 91.4217 54.7862 91.4394 54.4153C91.4482 54.1591 91.4482 53.903 91.4394 53.6469C91.4217 53.2759 91.3555 52.9315 91.2407 52.6136C91.1259 52.2868 90.936 52.0262 90.671 51.8319C90.4149 51.6288 90.0572 51.5272 89.5979 51.5272C89.1652 51.5272 88.8119 51.6288 88.5381 51.8319C88.2731 52.0351 88.0744 52.2956 87.942 52.6136C87.8183 52.9227 87.7476 53.2406 87.73 53.5674C87.7212 53.7087 87.7167 53.8765 87.7167 54.0708C87.7167 54.2651 87.7212 54.4373 87.73 54.5875C87.7388 54.8966 87.8095 55.2013 87.942 55.5016C88.0833 55.8019 88.2908 56.0492 88.5646 56.2435C88.8384 56.4378 89.1828 56.5349 89.5979 56.5349ZM96.2842 57.608C95.8426 57.608 95.4407 57.5197 95.0786 57.343C94.7165 57.1664 94.4251 56.9279 94.2043 56.6277C93.9835 56.3274 93.8731 55.9873 93.8731 55.6076C93.8731 54.9982 94.1204 54.5124 94.6149 54.1503C95.1095 53.7882 95.7543 53.5497 96.5491 53.4349L98.5231 53.1567V52.7725C98.5231 52.3486 98.3994 52.0174 98.1521 51.7789C97.9137 51.5405 97.5207 51.4212 96.9731 51.4212C96.5845 51.4212 96.2665 51.5007 96.0192 51.6597C95.7719 51.8187 95.5997 52.0218 95.5026 52.2691C95.4496 52.4016 95.3568 52.4678 95.2244 52.4678H94.6282C94.531 52.4678 94.456 52.4413 94.403 52.3883C94.3588 52.3265 94.3367 52.2559 94.3367 52.1764C94.3367 52.0439 94.3853 51.8805 94.4825 51.6862C94.5885 51.4919 94.7474 51.302 94.9594 51.1165C95.1714 50.9311 95.4407 50.7765 95.7675 50.6529C96.1031 50.5204 96.5094 50.4541 96.9863 50.4541C97.5162 50.4541 97.9622 50.5248 98.3244 50.6661C98.6865 50.7986 98.9691 50.9796 99.1722 51.2093C99.3842 51.4389 99.5343 51.6994 99.6226 51.9909C99.7198 52.2824 99.7684 52.5782 99.7684 52.8785V57.1708C99.7684 57.2591 99.7375 57.3342 99.6756 57.396C99.6226 57.449 99.552 57.4755 99.4637 57.4755H98.8543C98.7571 57.4755 98.682 57.449 98.6291 57.396C98.5761 57.3342 98.5496 57.2591 98.5496 57.1708V56.6012C98.4348 56.7601 98.2802 56.9191 98.0859 57.0781C97.8916 57.2282 97.6487 57.3563 97.3573 57.4623C97.0658 57.5594 96.7081 57.608 96.2842 57.608ZM96.5624 56.6144C96.9245 56.6144 97.2557 56.5393 97.556 56.3892C97.8563 56.2302 98.0903 55.9873 98.2581 55.6606C98.4348 55.3338 98.5231 54.9231 98.5231 54.4285V54.0576L96.9863 54.2828C96.3593 54.3711 95.8867 54.5212 95.5688 54.7332C95.2508 54.9363 95.0919 55.1969 95.0919 55.5148C95.0919 55.7621 95.1625 55.9697 95.3038 56.1375C95.454 56.2965 95.6395 56.4157 95.8603 56.4952C96.0899 56.5747 96.3239 56.6144 96.5624 56.6144ZM101.978 57.4755C101.889 57.4755 101.814 57.449 101.752 57.396C101.699 57.3342 101.673 57.2591 101.673 57.1708V50.8913C101.673 50.803 101.699 50.7324 101.752 50.6794C101.814 50.6175 101.889 50.5866 101.978 50.5866H102.6C102.689 50.5866 102.759 50.6175 102.812 50.6794C102.874 50.7324 102.905 50.803 102.905 50.8913V51.4742C103.135 51.1739 103.422 50.9311 103.766 50.7456C104.119 50.5513 104.57 50.4541 105.117 50.4541C105.691 50.4541 106.177 50.5822 106.575 50.8383C106.981 51.0856 107.286 51.4345 107.489 51.8849C107.701 52.3265 107.807 52.8432 107.807 53.4349V57.1708C107.807 57.2591 107.776 57.3342 107.714 57.396C107.661 57.449 107.59 57.4755 107.502 57.4755H106.84C106.751 57.4755 106.676 57.449 106.614 57.396C106.561 57.3342 106.535 57.2591 106.535 57.1708V53.5012C106.535 52.8829 106.385 52.4016 106.084 52.0571C105.784 51.7039 105.343 51.5272 104.76 51.5272C104.212 51.5272 103.77 51.7039 103.435 52.0571C103.108 52.4016 102.945 52.8829 102.945 53.5012V57.1708C102.945 57.2591 102.914 57.3342 102.852 57.396C102.799 57.449 102.728 57.4755 102.64 57.4755H101.978ZM110.706 59.9926C110.635 59.9926 110.573 59.9661 110.52 59.9131C110.467 59.8601 110.441 59.7983 110.441 59.7277C110.441 59.6923 110.445 59.657 110.454 59.6217C110.463 59.5864 110.48 59.5422 110.507 59.4892L111.527 57.0648L108.997 51.09C108.952 50.9841 108.93 50.909 108.93 50.8648C108.93 50.7853 108.957 50.7191 109.01 50.6661C109.063 50.6131 109.129 50.5866 109.209 50.5866H109.858C109.955 50.5866 110.025 50.6087 110.07 50.6529C110.123 50.697 110.158 50.75 110.176 50.8118L112.189 55.6341L114.256 50.8118C114.282 50.75 114.318 50.697 114.362 50.6529C114.415 50.6087 114.49 50.5866 114.587 50.5866H115.21C115.289 50.5866 115.356 50.6131 115.409 50.6661C115.462 50.7191 115.488 50.7809 115.488 50.8516C115.488 50.8957 115.466 50.9752 115.422 51.09L111.659 59.7674C111.633 59.8292 111.593 59.8822 111.54 59.9264C111.496 59.9705 111.425 59.9926 111.328 59.9926H110.706Z" fill="black"/>
<defs>
<clipPath id="clip0_1_481">
<rect width="36.6249" height="9.65991" fill="white" transform="translate(18.8644 49.9868)"/>
</clipPath>
</defs>
</svg>
